<svg id="Capa_1" enable-background="new 0 0 512 512" height="512" viewBox="0 0 512 512" width="512" xmlns="http://www.w3.org/2000/svg"><g><path d="m243.036 175.722c5.534 0 10.02-4.486 10.02-10.02v-37.62l28.909 41.862c2.894 4.18 7.741 5.95 12.347 4.511 4.69-1.465 7.721-5.825 7.721-11.108v-67.537c0-5.534-4.486-10.02-10.02-10.02s-10.02 4.486-10.02 10.02v38.91l-30.713-44.473c-2.492-3.607-7.04-5.176-11.227-3.872-4.186 1.305-7.038 5.181-7.038 9.566v69.762c.001 5.534 4.487 10.019 10.021 10.019z"/><path d="m115.557 95.81v69.892c0 5.534 4.486 10.02 10.02 10.02s10.02-4.486 10.02-10.02v-69.892c0-5.534-4.486-10.02-10.02-10.02-5.534.001-10.02 4.487-10.02 10.02z"/><path d="m195.674 120.737c-5.534 0-10.02 4.486-10.02 10.02s4.486 10.02 10.02 10.02h9.626c-3.058 10.809-11.181 14.907-18.886 14.907-13.745 0-24.927-11.182-24.927-24.927s11.182-24.927 24.927-24.927c4.997 0 9.813 1.47 13.93 4.251 4.585 3.098 10.814 1.892 13.911-2.693 3.098-4.585 1.892-10.814-2.693-13.911-7.442-5.028-16.138-7.685-25.148-7.685-24.795 0-44.966 20.172-44.966 44.966s20.172 44.966 44.966 44.966c23.661 0 40.187-18.491 40.187-44.966 0-5.534-4.486-10.02-10.02-10.02h-20.907z"/><path d="m77.185 155.684c-6.591 0-12.92-2.643-16.932-7.069-3.717-4.101-10.053-4.411-14.153-.696-4.1 3.716-4.412 10.052-.696 14.153 7.863 8.676 19.446 13.652 31.78 13.652 15.352 0 28.252-9.844 30.673-23.407 1.832-10.256-2.76-23.631-21.136-30.409-8.365-3.086-16.169-6.441-18.79-7.586-1.22-1.069-1.239-2.474-1.125-3.266.142-.99.881-3.415 4.659-4.553 9.143-2.756 17.753 3.974 18.053 4.212 4.236 3.507 10.515 2.944 14.058-1.272 3.561-4.236 3.013-10.556-1.223-14.117-.682-.573-16.922-13.963-36.668-8.011-10.132 3.052-17.303 11.058-18.715 20.893-1.329 9.259 2.686 18.167 10.478 23.248.443.289.908.542 1.391.757.406.182 10.068 4.482 20.948 8.495 2.154.795 9.123 3.726 8.344 8.086-.591 3.313-4.945 6.89-10.946 6.89z"/><path d="m337.747 85.791c-5.534 0-10.02 4.486-10.02 10.02v48.094c0 11.013 5.245 19.949 15.59 26.557 5.45 3.482 11.595 5.252 18.264 5.261h.055c5.733 0 11.121-1.249 16.011-3.712 12.049-6.068 18.685-16.067 18.685-28.157v-48.044c0-5.534-4.486-10.02-10.02-10.02s-10.02 4.486-10.02 10.02v48.043c0 3.165-.91 6.86-7.66 10.259-2.098 1.057-4.387 1.571-6.998 1.571-.009 0-.019 0-.027 0-2.833-.004-5.287-.693-7.502-2.109-5.279-3.372-6.34-6.201-6.34-9.67v-48.094c.001-5.533-4.485-10.019-10.018-10.019z"/><path d="m425.734 166.754v-20.426h9.442c16.614 0 30.13-13.343 30.13-29.743 0-16.401-13.516-29.744-30.13-29.744h-19.461c-5.534 0-10.02 4.486-10.02 10.02v69.893c0 5.534 4.486 10.02 10.02 10.02s10.019-4.486 10.019-10.02zm0-59.873h9.442c5.47 0 10.091 4.444 10.091 9.704s-4.621 9.704-10.09 9.704h-9.442v-19.408z"/><path d="m408.121 29.705h-106.88c-5.023 0-9.512 3.563-10.226 8.534-.889 6.193 3.891 11.505 9.913 11.505h107.263c44.47 0 82.754 36.344 83.749 80.803.51 22.807-8.134 44.329-24.205 60.4-15.628 15.618-36.399 24.22-58.485 24.22h-174.209s0 0-.001 0c-5.036-9.862-15.29-16.634-27.102-16.634s-22.066 6.772-27.102 16.634c0 0 0 0-.001 0h-77.025c-44.459 0-82.744-36.335-83.749-80.783-.516-22.807 8.128-44.334 24.207-60.411 15.624-15.624 36.393-24.228 58.483-24.228h108.019c5.023 0 9.512-3.563 10.226-8.534.889-6.193-3.891-11.505-9.913-11.505h-108.333c-27.442 0-53.244 10.689-72.653 30.097-20.199 20.2-30.954 47.323-30.044 76.014 1.763 55.604 48.195 99.389 103.827 99.389h73.639s.001 0 .001.001v91.225c0 .001-.001.001-.001 0l-1.532-1.492c-12.173-11.858-32.058-11.824-44.19.076l-.383.375c-11.6 11.377-12.537 29.783-2.228 43.766 17.551 23.804 42.549 58.443 49.557 68.166v26.11c0 10.418 8.445 18.863 18.863 18.863h108.627c10.417 0 18.862-8.445 18.862-18.862v-17.909c21.375-24.78 33.1-56.259 33.1-89.087v-55.042c0-16.885-13.688-30.574-30.574-30.574h-.835c-4.856 0-9.449 1.143-13.531 3.167h-.001c-4.803-9.792-14.873-16.552-26.496-16.552-7.459 0-14.275 2.788-19.474 7.371h-.001c-5.199-4.582-12.015-7.371-19.474-7.371-3.306 0-6.484.555-9.454 1.563 0 0-.001 0-.001-.001v-23.792s0-.001.001-.001h170.895c27.437 0 53.238-10.684 72.653-30.088 20.195-20.195 30.949-47.316 30.045-76.008-1.755-55.61-48.189-99.405-103.827-99.405zm-169.764 257.225c0-5.681 5.038-10.209 10.88-9.35 4.682.688 8.029 4.922 8.029 9.655v28.625c0 4.292 2.686 8.225 6.781 9.512 6.909 2.172 13.259-2.928 13.259-9.512v-28.624c0-4.733 3.347-8.967 8.029-9.655 5.843-.859 10.881 3.669 10.881 9.35v28.616c0 5.022 3.562 9.511 8.533 10.226 6.193.891 11.506-3.891 11.506-9.912v-14.467c0-5.818 4.716-10.534 10.534-10.534h.835c5.818 0 10.534 4.716 10.534 10.534v59.176c0 27.837-11.705 53.838-30.479 74.392-1.686 1.846-2.621 4.257-2.621 6.757v20.536s0 .001-.001.001h-106.273s-.001 0-.001-.001v-28.166c0-2.101-.66-4.149-1.887-5.853-.308-.428-31.019-43.085-51.58-70.972-3.714-5.038-5.114-12.423.131-17.567l.383-.376c4.438-4.358 11.714-4.373 16.17-.033l18.36 17.885c2.307 2.248 5.529 3.428 8.71 2.916 5.02-.808 8.492-5.076 8.492-9.908v-120.952c0-5.113 3.581-9.683 8.626-10.514 6.493-1.069 12.132 3.937 12.132 10.234v86.596c0 5.023 3.563 9.512 8.534 10.226 6.193.889 11.505-3.891 11.505-9.913v-28.928z"/><circle cx="256" cy="39.728" r="10"/></g></svg>